<svg height="858" viewBox="0 0 1396 1716" width="698" xmlns="http://www.w3.org/2000/svg"><path d="m166.381 95.649c22.923 5.278 47.806 13.409 65.491 18.369 25.853 7.251 115.633 34.46 164.628 49.125 168.65 50.328 665.41 197.5 678.6 201.89 12.81 4.264 40.2 13.567 59.23 34.694 18.57 20.613 22.82 37.674 25.01 50.355 2.23 12.919 162.31 1134.5 163.94 1145.658 2.45 16.82 7.84 46.16 1.48 66.96-2.76 9.04-16.95 24.9-27.64 34.92-8.8 8.25-15.88 11.39-21.4 12.95-14.59 4.11-29.32 2.83-45.51.04-17-2.93-151.22-29.94-216.21-42.61-223.978-44-798.519-154.56-810.768-157.19-6.824-1.47-42.272-6.83-66.845-21.42-25.546-15.17-40.791-36.52-46.287-51.01-9.543-25.16-8.69-44.69-8.895-56.62-.185-10.83-.364-1089.36-.364-1089.36s-.314-124.565.67-136.987c.827-10.444 6.383-22.22 12.018-31.563 4.559-7.561 9.315-20.652 25.359-26.881 9.633-3.739 21.922-7.207 47.493-1.32z" fill="#fff" fill-rule="evenodd"/></svg>