<svg height="858" viewBox="0 0 1396 1716" width="698" xmlns="http://www.w3.org/2000/svg"><path d="m58.028 325.767.267-48.667 1.122-.928s.348-17.628.514-22.113c.151-4.084 3.676-27.606 8.224-36.949 4.374-8.985 8.165-14.031 15.211-19.852s17.844-10.635 27.835-12.441a160.774 160.774 0 0 1 37.192-1.735c8.271.709 259.5 31.971 565.795 69.443 125.712 15.375 260.712 33.907 391.982 48.586 8.51.951 30.46 6.082 46.64 16.038 17.24 10.613 26.86 21.683 32.36 33.346a113.6 113.6 0 0 1 9.32 32.4c.35 3.185 193.77 1165.135 194.61 1171.5a142.9 142.9 0 0 1 .87 26.12 74.546 74.546 0 0 1 -4.58 20.28c-1.6 3.88-20.34 33.01-22.41 35.56s-10.97 9.14-20.89 13.57-28.01 6.03-37.96 6.3c-9.45.27-1126.078-74.83-1133.4-75.1s-21.756-1.46-42.111-7.92c-15.28-4.84-43.972-19.31-57.336-45.65-5.354-10.55-10.236-26.81-11.041-35.17s-.314-604.6-.314-604.6l.1-503-2.053-1.47.342-48.3 1.63-1.957.053-6.544z" fill="#fff" fill-rule="evenodd"/></svg>