<svg height="830" viewBox="0 0 916 1660" width="458" xmlns="http://www.w3.org/2000/svg"><path d="m839.1 1.95c3-.715 7.629-1.951 12.269-1.94a53.05 53.05 0 0 1 13.9 2.275c5.637 1.625 30.487 15.776 33.431 18.435 2.858 2.584 10.349 12.209 12.77 21.244 2.5 9.328 3.629 21.562 3.629 31.09s-.245 1154.786-1.008 1164.756c-.761 9.94-5.887 32.46-16.5 47.33-8.659 12.14-19.153 25.37-41.379 36.48-21.306 10.64-701.886 329.09-708.255 331.49a103.559 103.559 0 0 1 -22.509 5.98c-7.494.92-16.27-.65-21.023-3.14-10.343-5.42-25.119-17.16-28.4-20.24-2.7-2.53-10.1-12.87-11.73-25.34s-4.161-55.22-4.644-66.19-57.259-1140.975-57.302-1150.396c-.041-8.949-1.009-30.749 14.134-58.02 14.558-26.217 39.038-39.688 52.678-44.947 13.11-5.055 682.367-256.732 688.977-259.181s73.81-27.981 80.962-29.686z" fill="#fff" fill-rule="evenodd"/></svg>