<svg height="858" viewBox="0 0 1396 1716" width="698" xmlns="http://www.w3.org/2000/svg"><path d="m225.685 38.07c7.874-6.242 20.592-9.064 36.456-6.16 8.768 1.6 17.471 4.765 28.15 9.7 11.516 5.322 110.421 51.142 151.084 70.14 144.652 67.327 555.105 258.392 568.985 265.35s24.77 13.454 38.69 31.76a109.78 109.78 0 0 1 22.26 55.3c4.52 44.359 86.67 1114.867 88.34 1143.907 1.69 29.43 1.33 47.2-7.68 59.5s-25.71 18.4-34.67 22.29c-8.74 3.81-20.56 5.97-43.04-.12-16.84-4.56-753.971-206.17-771.94-211.25s-58.939-12.99-81.585-41.89c-22.929-29.26-26.5-54.82-26.928-69.98-.4-14.13.693-475.135.693-629.12 0-168.317-1.125-336.184-1.125-504.5 0-36.33.213-115.8.394-130.466s-.268-27.057 4.767-37.123 16.418-18.832 27.149-27.338z" fill="#fff" fill-rule="evenodd"/></svg>