<svg height="858" viewBox="0 0 1396 1716" width="698" xmlns="http://www.w3.org/2000/svg"><path d="m72.353 334.066.266-49.4.889-.928s1.282-25 1.448-29.481c.151-4.083 3.924-23.038 8.471-32.381 4.374-8.986 8.061-12.264 15.108-18.086s17.719-10.325 27.71-12.131 29.326-2.524 39.6-1.5c11.428 1.143 915.868 90.822 926.438 92.251s36.53 3.809 56.69 15.291c17.6 10.021 29.87 22.243 36.18 36.889 6.15 14.282 6.8 23.571 7.15 26.756s181.057 1175.184 181.897 1181.544 2.19 25.11 1.5 33.61-6.21 23.46-10.05 29.96-12.62 18.02-14.69 20.57-10.39 10.89-20.3 15.32-21.55 7.37-31 7.71-1105.916-64.27-1113.241-64.54a254.455 254.455 0 0 1 -32.86-4.25 100.247 100.247 0 0 1 -37.683-15.74c-12.433-8.41-23.457-19.54-28.9-30.43-5.591-11.18-11.155-29.55-11.46-38.4-.289-8.39-1.231-601.355-1.231-601.355l-.8-501.331-1.553-1.47.709-48.969 1.046-1.956.054-6.806z" fill="#fff" fill-rule="evenodd"/></svg>