<svg height="858" viewBox="0 0 1396 1716" width="698" xmlns="http://www.w3.org/2000/svg"><path d="m358.009 2.536c10.866-2.393 22.925 1.7 33.1 7 11.791 6.144 545.933 296.721 558.973 304.453s23.04 20.5 31.282 39.282 10.5 39.076 10.783 52.134c.694 31.549 26.153 1142.135 25.8 1165.425s-2.19 43.31-14.86 56.67c-6.418 6.75-13.8 8.85-25.533 10.85-10.289 1.75-18.9 3.03-28.469 1.49-19.978-3.21-547.733-119.72-570.163-124.72s-40.766-10.59-55.621-34.42-16.876-48.02-17.146-64.18c-.318-18.99.02-1340.287.2-1352.166s2.371-29.819 9.91-41.64a26.79 26.79 0 0 1 10.975-9.644 178.139 178.139 0 0 1 30.769-10.534z" fill="#fff" fill-rule="evenodd"/></svg>